<?xml version="1.0" encoding="UTF-8" standalone="no"?>
<svg
   xmlns:dc="http://purl.org/dc/elements/1.1/"
   xmlns:cc="http://creativecommons.org/ns#"
   xmlns:rdf="http://www.w3.org/1999/02/22-rdf-syntax-ns#"
   xmlns:svg="http://www.w3.org/2000/svg"
   xmlns="http://www.w3.org/2000/svg"
   xmlns:sodipodi="http://sodipodi.sourceforge.net/DTD/sodipodi-0.dtd"
   xmlns:inkscape="http://www.inkscape.org/namespaces/inkscape"
   width="60"
   height="60"
   viewBox="0 0 15.875 15.875001"
   version="1.1"
   id="svg4790"
   sodipodi:docname="boat.svg"
   inkscape:version="0.92.4 (5da689c313, 2019-01-14)">
  <sodipodi:namedview
     pagecolor="#ffffff"
     bordercolor="#666666"
     borderopacity="1"
     objecttolerance="10"
     gridtolerance="10"
     guidetolerance="10"
     inkscape:pageopacity="0"
     inkscape:pageshadow="2"
     inkscape:window-width="1920"
     inkscape:window-height="1057"
     id="namedview4752"
     showgrid="true"
     inkscape:zoom="10.665527"
     inkscape:cx="4.0452014"
     inkscape:cy="20.970597"
     inkscape:window-x="-8"
     inkscape:window-y="-8"
     inkscape:window-maximized="1"
     inkscape:current-layer="svg4790"
     inkscape:snap-grids="true">
    <inkscape:grid
       type="xygrid"
       id="grid4753" />
  </sodipodi:namedview>
  <defs
     id="defs4784" />
  <metadata
     id="metadata4787">
    <rdf:RDF>
      <cc:Work
         rdf:about="">
        <dc:format>image/svg+xml</dc:format>
        <dc:type
           rdf:resource="http://purl.org/dc/dcmitype/StillImage" />
        <dc:title></dc:title>
      </cc:Work>
    </rdf:RDF>
  </metadata>
  <g
     id="layer1"
     style="stroke:#000000;stroke-width:0.26458335;stroke-miterlimit:4;stroke-dasharray:none;stroke-opacity:1">
    <path
       id="path8460"
       d="m 5.2916668,14.552084 c 0,0 1.3198439,-2.621236 2.5426027,-2.645099 1.2714106,-0.02481 2.7490645,2.380515 2.7490645,2.380515 l 0,-8.9958332 c 0,0 0,-1.0583333 -0.9510297,-2.5007472 C 9.007956,1.8439784 7.9375002,1.3229167 7.9375002,1.3229167 c 0,0 -1.3229167,0.79375 -1.8383337,1.6346466 C 5.6270987,3.7277359 5.2916668,5.2916668 5.2916668,5.2916668 v 4.7625002 c 0.021411,1.971655 0,4.497917 0,4.497917 z"
       style="fill:#2ac200;fill-opacity:1;fill-rule:evenodd;stroke:#000000;stroke-width:0.26458335;stroke-linecap:butt;stroke-linejoin:miter;stroke-miterlimit:4;stroke-dasharray:none;stroke-opacity:1"
       inkscape:connector-curvature="0"
       sodipodi:nodetypes="csccscsccc" />
  </g>
  <path
     id="path8460-0"
     d="m 7.9375002,14.552084 c 0.7937501,0 1.5875001,-0.264584 1.5875001,-0.264584 L 8.5652825,12.353912 8.7213867,12.116866 c 0,0 0.01226,-0.193255 -0.3086091,-0.520851 C 8.2367985,11.416347 8.128439,11.394462 7.8628137,11.378934 7.5971884,11.363394 7.4335272,11.440114 7.2662744,11.634548 7.1130884,11.812631 7.0042407,12.174251 7.0042407,12.174251 L 7.1603449,12.353912 6.3500002,14.2875 c 0,0 0.79375,0.264584 1.5875,0.264584 z"
     style="fill:#2ac200;fill-opacity:1;fill-rule:evenodd;stroke:#000000;stroke-width:0.25420213;stroke-linecap:butt;stroke-linejoin:miter;stroke-miterlimit:4;stroke-dasharray:none;stroke-opacity:1"
     inkscape:connector-curvature="0"
     sodipodi:nodetypes="zcccszscccz" />
</svg>
