<?xml version="1.0" encoding="UTF-8" standalone="no"?>
<!-- Created with Inkscape (http://www.inkscape.org/) -->

<svg
   xmlns:dc="http://purl.org/dc/elements/1.1/"
   xmlns:cc="http://creativecommons.org/ns#"
   xmlns:rdf="http://www.w3.org/1999/02/22-rdf-syntax-ns#"
   xmlns:svg="http://www.w3.org/2000/svg"
   xmlns="http://www.w3.org/2000/svg"
   xmlns:sodipodi="http://sodipodi.sourceforge.net/DTD/sodipodi-0.dtd"
   xmlns:inkscape="http://www.inkscape.org/namespaces/inkscape"
   width="180"
   height="180"
   viewBox="0 0 47.624999 47.625001"
   version="1.1"
   id="svg8"
   inkscape:export-filename="C:\Users\fraxl\Documents\qt\harbour-tripometer\busy.png"
   inkscape:export-xdpi="96"
   inkscape:export-ydpi="96"
   inkscape:version="0.92.4 (5da689c313, 2019-01-14)"
   sodipodi:docname="busy.svg">
  <defs
     id="defs2" />
  <sodipodi:namedview
     id="base"
     pagecolor="#ffffff"
     bordercolor="#666666"
     borderopacity="1.0"
     inkscape:pageopacity="0.0"
     inkscape:pageshadow="2"
     inkscape:zoom="5.6568543"
     inkscape:cx="109.0157"
     inkscape:cy="96.342974"
     inkscape:document-units="px"
     inkscape:current-layer="layer2"
     showgrid="true"
     units="px"
     showguides="false"
     inkscape:window-width="1920"
     inkscape:window-height="1057"
     inkscape:window-x="-8"
     inkscape:window-y="-8"
     inkscape:window-maximized="1">
    <inkscape:grid
       type="xygrid"
       id="grid4522" />
  </sodipodi:namedview>
  <metadata
     id="metadata5">
    <rdf:RDF>
      <cc:Work
         rdf:about="">
        <dc:format>image/svg+xml</dc:format>
        <dc:type
           rdf:resource="http://purl.org/dc/dcmitype/StillImage" />
        <dc:title></dc:title>
      </cc:Work>
    </rdf:RDF>
  </metadata>
  <g
     inkscape:label="Layer 1"
     inkscape:groupmode="layer"
     id="layer1"
     transform="translate(0,-249.37498)"
     style="display:none">
    <path
       style="opacity:1;fill:#88aa00;fill-opacity:1;fill-rule:evenodd;stroke:none;stroke-width:1.05799997;stroke-linecap:round;stroke-linejoin:round;stroke-miterlimit:4;stroke-dasharray:none;stroke-dashoffset:49.99998856;stroke-opacity:1;paint-order:normal"
       id="path4520"
       sodipodi:type="arc"
       sodipodi:cx="8.7406988"
       sodipodi:cy="258.87164"
       sodipodi:rx="2.0316219"
       sodipodi:ry="2.0316219"
       sodipodi:start="1.229389"
       sodipodi:end="1.0974334"
       sodipodi:open="true"
       d="m 9.4209133,260.78601 a 2.0316219,2.0316219 0 0 1 -2.5711031,-1.17138 2.0316219,2.0316219 0 0 1 1.0859401,-2.60834 2.0316219,2.0316219 0 0 1 2.6427377,0.99932 2.0316219,2.0316219 0 0 1 -0.9116093,2.67426" />
    <path
       style="opacity:1;fill:#88aa00;fill-opacity:1;fill-rule:evenodd;stroke:none;stroke-width:1.05799997;stroke-linecap:round;stroke-linejoin:round;stroke-miterlimit:4;stroke-dasharray:none;stroke-dashoffset:49.99998856;stroke-opacity:1;paint-order:normal"
       id="path4520-5"
       sodipodi:type="arc"
       sodipodi:cx="20.240486"
       sodipodi:cy="254.18134"
       sodipodi:rx="2.0316219"
       sodipodi:ry="2.0316219"
       sodipodi:start="1.229389"
       sodipodi:end="1.0974334"
       sodipodi:open="true"
       d="m 20.920701,256.0957 a 2.0316219,2.0316219 0 0 1 -2.571103,-1.17138 2.0316219,2.0316219 0 0 1 1.08594,-2.60834 2.0316219,2.0316219 0 0 1 2.642738,0.99932 2.0316219,2.0316219 0 0 1 -0.91161,2.67426" />
    <path
       style="opacity:1;fill:#88aa00;fill-opacity:1;fill-rule:evenodd;stroke:none;stroke-width:1.05799997;stroke-linecap:round;stroke-linejoin:round;stroke-miterlimit:4;stroke-dasharray:none;stroke-dashoffset:49.99998856;stroke-opacity:1;paint-order:normal"
       id="path4520-2"
       sodipodi:type="arc"
       sodipodi:cx="28.177986"
       sodipodi:cy="255.50426"
       sodipodi:rx="2.0316219"
       sodipodi:ry="2.0316219"
       sodipodi:start="1.229389"
       sodipodi:end="1.0974334"
       sodipodi:open="true"
       d="m 28.858201,257.41862 a 2.0316219,2.0316219 0 0 1 -2.571103,-1.17138 2.0316219,2.0316219 0 0 1 1.08594,-2.60834 2.0316219,2.0316219 0 0 1 2.642738,0.99932 2.0316219,2.0316219 0 0 1 -0.91161,2.67426" />
    <path
       style="opacity:1;fill:#88aa00;fill-opacity:1;fill-rule:evenodd;stroke:none;stroke-width:1.05799997;stroke-linecap:round;stroke-linejoin:round;stroke-miterlimit:4;stroke-dasharray:none;stroke-dashoffset:49.99998856;stroke-opacity:1;paint-order:normal"
       id="path4520-7"
       sodipodi:type="arc"
       sodipodi:cx="36.361454"
       sodipodi:cy="273.91895"
       sodipodi:rx="2.0316219"
       sodipodi:ry="2.0316219"
       sodipodi:start="1.229389"
       sodipodi:end="1.0974334"
       sodipodi:open="true"
       d="m 37.041669,275.83331 a 2.0316219,2.0316219 0 0 1 -2.571104,-1.17138 2.0316219,2.0316219 0 0 1 1.08594,-2.60834 2.0316219,2.0316219 0 0 1 2.642739,0.99932 2.0316219,2.0316219 0 0 1 -0.91161,2.67426" />
    <path
       style="opacity:1;fill:#88aa00;fill-opacity:1;fill-rule:evenodd;stroke:none;stroke-width:1.05799997;stroke-linecap:round;stroke-linejoin:round;stroke-miterlimit:4;stroke-dasharray:none;stroke-dashoffset:49.99998856;stroke-opacity:1;paint-order:normal"
       id="path4520-7-7"
       sodipodi:type="arc"
       sodipodi:cx="13.625903"
       sodipodi:cy="254.18134"
       sodipodi:rx="2.0316219"
       sodipodi:ry="2.0316219"
       sodipodi:start="1.229389"
       sodipodi:end="1.0974334"
       sodipodi:open="true"
       d="m 14.306118,256.0957 a 2.0316219,2.0316219 0 0 1 -2.571104,-1.17138 2.0316219,2.0316219 0 0 1 1.085941,-2.60834 2.0316219,2.0316219 0 0 1 2.642738,0.99932 2.0316219,2.0316219 0 0 1 -0.91161,2.67426" />
    <path
       style="opacity:1;fill:none;fill-opacity:1;fill-rule:evenodd;stroke:#88aa00;stroke-width:0.44954166;stroke-linecap:round;stroke-linejoin:round;stroke-miterlimit:4;stroke-dasharray:none;stroke-dashoffset:49.99998856;stroke-opacity:1;paint-order:normal"
       id="path4608"
       sodipodi:type="arc"
       sodipodi:cx="-26.792402"
       sodipodi:cy="-255.9503"
       sodipodi:rx="3.6346805"
       sodipodi:ry="1.3622782"
       sodipodi:start="1.229389"
       sodipodi:end="1.0974334"
       sodipodi:open="true"
       d="m -25.575462,-254.66665 a 3.6346805,1.3622782 0 0 1 -4.599841,-0.78545 3.6346805,1.3622782 0 0 1 1.942805,-1.74899 3.6346805,1.3622782 0 0 1 4.728,0.67008 3.6346805,1.3622782 0 0 1 -1.630919,1.79319"
       transform="scale(1,-1)" />
    <path
       style="opacity:1;fill:none;fill-opacity:1;fill-rule:evenodd;stroke:#88aa00;stroke-width:1;stroke-linecap:round;stroke-linejoin:round;stroke-miterlimit:4;stroke-dasharray:none;stroke-dashoffset:49.99998856;stroke-opacity:1;paint-order:normal"
       id="path4626"
       sodipodi:type="arc"
       sodipodi:cx="-24.473959"
       sodipodi:cy="240.77602"
       sodipodi:rx="3.3072915"
       sodipodi:ry="3.3072915"
       sodipodi:start="1.229389"
       sodipodi:end="1.0974334"
       sodipodi:open="true"
       d="m -23.366633,243.89243 a 3.3072915,3.3072915 0 0 1 -4.185517,-1.9069 3.3072915,3.3072915 0 0 1 1.76781,-4.24614 3.3072915,3.3072915 0 0 1 4.302131,1.6268 3.3072915,3.3072915 0 0 1 -1.484015,4.35345" />
    <path
       style="opacity:1;fill:none;fill-opacity:1;fill-rule:evenodd;stroke:#88aa00;stroke-width:1;stroke-linecap:round;stroke-linejoin:round;stroke-miterlimit:4;stroke-dasharray:none;stroke-dashoffset:49.99998856;stroke-opacity:1;paint-order:normal"
       id="path4628"
       sodipodi:type="arc"
       sodipodi:cx="23.561663"
       sodipodi:cy="273.7095"
       sodipodi:rx="20.505209"
       sodipodi:ry="20.505209"
       sodipodi:start="1.229389"
       sodipodi:end="1.0974334"
       sodipodi:open="true"
       d="M 30.427084,293.03124 A 20.505209,20.505209 0 0 1 4.4768783,281.20848 20.505209,20.505209 0 0 1 15.437298,254.88244 a 20.505209,20.505209 0 0 1 26.673219,10.08615 20.505209,20.505209 0 0 1 -9.200899,26.99137" />
  </g>
  <g
     inkscape:groupmode="layer"
     id="layer2"
     inkscape:label="Layer 2">
    <path
       style="opacity:1;fill:none;fill-opacity:1;fill-rule:evenodd;stroke:#88aa00;stroke-width:7;stroke-linecap:round;stroke-linejoin:round;stroke-miterlimit:4;stroke-dasharray:7,14;stroke-dashoffset:70;stroke-opacity:1;paint-order:normal"
       id="path4683"
       sodipodi:type="arc"
       sodipodi:cx="23.8125"
       sodipodi:cy="23.8125"
       sodipodi:rx="19.84375"
       sodipodi:ry="19.84375"
       sodipodi:start="0.86625839"
       sodipodi:end="0.83416737"
       d="M 36.664937,38.931669 A 19.84375,19.84375 0 0 1 8.7969279,36.785819 19.84375,19.84375 0 0 1 10.719133,8.9014918 19.84375,19.84375 0 0 1 38.617985,10.599929 19.84375,19.84375 0 0 1 37.143426,38.511508"
       sodipodi:open="true" />
  </g>
</svg>
