<?xml version="1.0" encoding="UTF-8" standalone="no"?>
<svg
   xmlns:dc="http://purl.org/dc/elements/1.1/"
   xmlns:cc="http://creativecommons.org/ns#"
   xmlns:rdf="http://www.w3.org/1999/02/22-rdf-syntax-ns#"
   xmlns:svg="http://www.w3.org/2000/svg"
   xmlns="http://www.w3.org/2000/svg"
   xmlns:sodipodi="http://sodipodi.sourceforge.net/DTD/sodipodi-0.dtd"
   xmlns:inkscape="http://www.inkscape.org/namespaces/inkscape"
   id="svg9430"
   version="1.1"
   viewBox="0 0 8.4666664 8.4666668"
   height="32"
   width="32"
   sodipodi:docname="pike1.svg"
   inkscape:version="0.92.4 (5da689c313, 2019-01-14)">
  <sodipodi:namedview
     pagecolor="#ffffff"
     bordercolor="#666666"
     borderopacity="1"
     objecttolerance="10"
     gridtolerance="10"
     guidetolerance="10"
     inkscape:pageopacity="0"
     inkscape:pageshadow="2"
     inkscape:window-width="1920"
     inkscape:window-height="1057"
     id="namedview4782"
     showgrid="false"
     inkscape:zoom="9.9989318"
     inkscape:cx="5.7777996"
     inkscape:cy="15.748147"
     inkscape:window-x="-8"
     inkscape:window-y="-8"
     inkscape:window-maximized="1"
     inkscape:current-layer="svg9430" />
  <defs
     id="defs9424" />
  <metadata
     id="metadata9427">
    <rdf:RDF>
      <cc:Work
         rdf:about="">
        <dc:format>image/svg+xml</dc:format>
        <dc:type
           rdf:resource="http://purl.org/dc/dcmitype/StillImage" />
        <dc:title />
      </cc:Work>
    </rdf:RDF>
  </metadata>
  <g
     style="display:inline;stroke-width:1.29858291"
     transform="matrix(0.68701747,0,0,0.86316337,3.3907882,-246.04527)"
     id="layer1">
    <g
       style="display:inline;stroke-width:9.64244461"
       transform="matrix(0.02259589,0,0,0.01712193,-4.8397608,288.86189)"
       id="g9409">
      <path
         style="fill:#a0af64;stroke-width:9.64244461"
         d="m 397,270.997 -32,48 c 0,0 -19,-13 -12.566,-32.002 0.933,-2.754 2.476,-5.42 4.566,-7.998 15,-18.5 40,-8 40,-8 z"
         id="path9321" />
      <path
         style="fill:#b9d778;stroke-width:9.64244461"
         d="M 349,286.997 H 237 c -32,0 -107.333,-24 -128,-24 -20.667,0 -88.667,24 -96,24 -7.333,0 -8,-1.334 -8,-8 0,-6.667 32,-25.334 32,-32 0,-6.666 -32,-25.334 -32,-32 0,-6.666 0.667,-8 8,-8 7.333,0 75.333,24 96,24 20.667,0 96,-24 128,-24 h 144 c 23.029,0 40.10766,21.79317 62.64466,28.94717 4.412,1.4 42.83013,12.56938 49.37445,17.19838 l 13.72713,4.30188 c 4.30968,2.01614 23.83278,-1.71743 16.54766,12.8965 -20.316,6.449 -106.4889,12.33207 -134.2919,16.03107"
         id="path9323" />
      <path
         style="fill:#dceb87;stroke-width:9.64244461"
         d="m 5,278.954 c 0,-1.865 2.546,-4.686 6.154,-7.903 0.3,-0.031 0.586,-0.056 0.86,-0.07 3.289,-0.596 14.943,-4.078 24.362,-6.894 32.484,-9.707 58.458,-17.133 72.623,-17.133 10.547,0 27.852,3.982 55.212,10.481 25.359,6.022 56.92,13.519 72.788,13.519 h 144 c 33.6531,-4.92967 80.90327,13.63208 144.75055,16.34923 11.27614,22.97815 -39.69462,19.29759 -144.75055,-0.34923 h -144 c -32,0 -107.333,-24 -128,-24 -20.666,0 -88.666,24 -96,24 -7.332,0 -7.999,-1.333 -7.999,-8 z"
         id="path9325" />
      <path
         style="fill:#acc36e;stroke-width:9.64244461"
         d="m 5,219.04 c 0,1.865 2.546,4.686 6.154,7.903 0.3,0.031 0.586,0.056 0.86,0.07 3.289,0.596 14.943,4.078 24.362,6.894 32.485,9.707 58.459,17.133 72.624,17.133 10.547,0 27.852,-3.982 55.212,-10.481 25.359,-6.022 56.92065,-13.65719 72.788,-13.519 l 141.12688,1.22911 c 17.73428,0.15445 58.65832,23.37471 82.60832,31.12571 3.876,1.255 19.8678,4.34731 22.6008,5.21431 1.732,0.55 30.27183,5.23832 34.04783,6.52532 2.272,-1.977 11.27505,-5.30156 8.03768,-6.11333 -57.20845,-14.34505 -88.63462,-46.90851 -93.04662,-48.30951 -4.34058,-2.3912 -8.63666,-1.89441 -31.90153,-5.67161 -26.49654,-4.30188 -163.47336,0 -163.47336,0 -31.39821,5.94539 -107.333,24 -128,24 -20.666,0 -88.666,-24 -96,-24 -7.333,0 -8,1.333 -8,8 z"
         id="path9327" />
      <g
         style="stroke-width:9.64244461"
         id="g9339">
        <path
           style="fill:#a0af64;stroke-width:9.64244461"
           d="m 74.891,224.997 c -28.264,-6.605 -56.284,-18 -61.891,-18 -7.333,0 -8,1.333 -8,8 0,6.666 32,25.333 32,32 0,6.666 -32,25.333 -32,32 0,6.666 0.667,8 8,8 5.607,0 33.626,-10.395 61.891,-17 C 68.377,265.976 64,255.216 64,246.997 c 0,-8.219 4.377,-17.978 10.891,-22 z"
           id="path9329" />
        <path
           style="fill:#a0af64;stroke-width:9.64244461"
           d="m 192,216 c 0,0 -37.5,-32 -48,-32 -10.5,0 -48,10 -48,16 0,6 16,32 16,32 z"
           id="path9331" />
        <path
           style="fill:#a0af64;stroke-width:9.64244461"
           d="m 104,288 c 0,7.5 22.5,22 32,16 9.5,-6 32,-24 32,-24 L 117.411,266.377 C 108.411,274.377 104,280.5 104,288 Z"
           id="path9333" />
        <path
           style="fill:#a0af64;stroke-width:9.64244461"
           d="m 280,288.001 c 0,8.332 -7.333,31.332 -16,40 -0.235,0.234 -16,-18 -16,-40"
           id="path9335" />
        <path
           style="fill:#a0af64;stroke-width:9.64244461"
           d="m 400,272.001 -32,48 c 0,0 -19,-13 -12.566,-32.002 0.933,-2.754 2.476,-5.42 4.567,-7.998 14.999,-18.5 39.999,-8 39.999,-8 z"
           id="path9337" />
      </g>
      <path
         style="stroke-width:9.64244461"
         d="m 407.19366,209.7875 c 0,0 -13.65828,-4.75614 -15.77441,-5.04001 -6.22,-0.67408 -17.47105,-0.76372 -21.64164,-0.81992 l -130.22908,-1.75479 c -11.77377,-0.15865 -28.20038,7.91597 -45.58606,9.00578 -3.754,-3.104 -18.32214,-12.92112 -25.13114,-18.01712 -20.714,-15.505 -20.49506,-12.16405 -25.05706,-12.16405 -5.503,0 -10.2966,-0.88261 -18.8136,1.37139 -0.104,0.023 -3.36627,0.92211 -3.46927,0.95111 -2.239,0.596 -5.30993,1.42828 -7.30593,2.03428 -18.759003,5.706 -22.348,7.29883 -22.348,14.64583 0,3.898 -0.89947,11.198 4.88853,21.741 -14.95,-3.254 -35.860467,-5.89055 -50.928467,-10.39255 -19.907,-5.949 -22.130329,-6.56834 -25.734329,-6.56834 -4.28,0 -8.685533,-2.29433 -12.1605331,1.44967 -3.388,3.647 -3.388,7.57289 -3.388,11.07389 0,6.883 5.1725988,10.19822 17.6795991,20.09922 6.187802,2.754 5.59473,7.80011 8.44073,10.59711 -2.846,2.797 -8.122,6.974 -11.601,9.728 -12.507,9.901 -14.9707962,11.91255 -14.9707962,18.79555 0,3.501 -0.4514671,7.42689 2.9365329,11.07389 3.4750003,3.744 6.9775983,5.36067 11.2575983,5.36067 3.604,0 8.987599,-5.39945 28.894599,-11.34845 16.328,-4.879 38.085066,-5.12966 53.202066,-8.10466 -2.652,4.281 -3.048203,9.26596 -1.419464,14.495 3.160274,10.146 11.299864,16.29378 15.246864,18.46978 6.259,3.45 11.38007,3.2435 16.65507,3.2435 3.731,-10e-4 6.86226,-0.44145 9.66126,-2.20945 9.765,-6.167 31.56627,-20.51183 32.50027,-21.25783 0.527,-0.422 0.978,-0.9 1.368,-1.414 C 198.789,290.55 224.106,296 240,296 h 0.593 c 1.385,9.646 4.981,18.028 8.113,23.833 0.746,1.383 7.43,13.573 12.21,15.556 0.991,0.411 2.034,0.611 3.069,0.611 2.087,0 4.142,-0.813 5.672,-2.344 8.478,-8.478 14.964,-25.925 17.348,-37.656 h 61.0896 c 4.28394,18.31436 14.66927,27.64394 15.50027,28.21294 1.34,0.917 1.9012,1.9402 3.5022,1.9402 0.507,0 2.25853,-0.15664 2.76253,-0.25464 2.1,-0.406 1.86583,-4.99039 3.32913,-6.56653 l 30.92955,-33.31464 c -6.50286,-57.95758 2.01026,-59.56774 3.07538,-76.22983 z M 143.862,192.001 c 4.163,0.641 22.71707,12.73945 35.63107,22.81645 -4.029,0.945 -12.0942,3.63322 -16.0212,4.56622 -4.234,1.006 -8.42,1.34817 -12.477,2.29517 L 134.767,193.233 c 3.707,-0.747 6.93,-1.212 9.095,-1.232 z m -23.02966,2.97994 c 9.31329,-0.38 16.66147,22.43738 22.50913,30.3969 -6.509,1.375 -28.62954,4.15222 -32.87254,4.63122 -4.711,-7.934 -8.0296,-25.03284 -10.0346,-29.79084 3.15243,-2.03936 15.7529,-6.68809 20.39801,-5.23728 z M 70.476408,266.696 c -7.037,2.025 -22.199408,4.127 -28.809408,6.102 -9.147,2.733 -19.317,5.773 -23.922,6.834 2.916,-2.785 5.633665,-8.89778 8.962665,-11.53178 12.508,-9.902 13.617394,-13.21722 13.617394,-20.10022 0,-6.883 1.147941,-12.371 -11.359059,-22.272 -3.329,-2.635 -8.305,-6.574 -11.22,-9.359 4.604,1.061 14.774,4.101 23.922,6.834 6.61,1.975 19.967539,5.38067 27.004539,7.40667 -4.013,5.259 -6.803467,10.47533 -6.803467,17.39033 0,6.917 4.595336,13.437 8.607336,18.696 z m 65.748572,36.53983 c -4.59693,-0.0453 -13.51399,-0.24116 -17.38899,-1.55916 -6.10053,-4.1845 -13.85613,-12.8775 -15.16513,-15.0325 0.229,-3.376 3.36967,-8.78495 11.01667,-15.72195 8.571,1.438 36.15583,7.84417 48.74583,10.82017 -7.279,5.678 -22.39658,16.28921 -27.20838,21.49344 z m 126.35508,23.49654 C 259.86206,322.09837 249.55164,303.173 248.17164,296 l 29.48254,0.92183 c -1.438,5.556 -12.18712,24.15554 -15.07412,29.81054 z M 353.787,274.961 c -1.332,1.642 -5.1958,9.84334 -6.1738,11.55734 l -108.51613,-0.43456 c -16.80486,-0.0673 -49.78634,-9.03522 -76.89434,-15.47322 -23.19,-5.508 -39.60626,-7.22311 -49.75126,-7.22311 -7.066,0 -19.754404,-1.578 -32.453404,1.69 C 74.633066,262.73445 72,253.923 72,248 c 0,-5.923 3.538,-11.259 8.903,-13.6 12.691,3.267 24.019,5.597 31.084,5.6 0.007,0 0.013,0.001 0.02,0.001 0.007,0 0.013,-0.002 0.02,-0.002 10.153,-0.008 29.94027,-6.06467 53.11027,-11.56767 8.23,-1.955 12.95553,-3.55344 21.36253,-5.43844 2.085,0.379 11.26974,-3.77373 16.88121,-6.11412 17.04,-3.694 25.24311,-8.29805 35.71606,-8.26622 l 142.98419,0.43456 c 1.80451,0.0541 11.38088,0.88811 11.97288,0.91511 -4.437,10.181 -9.79313,32.44289 -6.31713,52.05489 -11.061,0.741 -27.18601,4.60089 -33.95001,12.94389 z m 12.95287,44.49526 c -3.167,-4.093 -14.71223,-22.83109 -12.34823,-29.81209 0.608,-1.796 7.75148,-10.10783 9.26948,-11.97983 4.368,-5.387 12.63242,-7.49672 20.08064,-5.85505 4.18236,0.92183 8.02248,11.10798 8.95048,11.18798 z"
         id="path9341" />
      <path
         style="stroke-width:9.64244461"
         d="m 440.03,232 h -0.01 c -4.418,0 -7.995,3.583 -7.995,8 0,4.418 3.587,8 8.005,8 4.418,0 8,-3.582 8,-8 0,-4.417 -3.582,-8 -8,-8 z"
         id="path9343" />
      <g
         style="stroke-width:9.64244461"
         id="g9345" />
      <g
         style="stroke-width:9.64244461"
         id="g9347" />
      <g
         style="stroke-width:9.64244461"
         id="g9349" />
      <g
         style="stroke-width:9.64244461"
         id="g9351" />
      <g
         style="stroke-width:9.64244461"
         id="g9353" />
      <g
         style="stroke-width:9.64244461"
         id="g9355" />
      <g
         style="stroke-width:9.64244461"
         id="g9357" />
      <g
         style="stroke-width:9.64244461"
         id="g9359" />
      <g
         style="stroke-width:9.64244461"
         id="g9361" />
      <g
         style="stroke-width:9.64244461"
         id="g9363" />
      <g
         style="stroke-width:9.64244461"
         id="g9365" />
      <g
         style="stroke-width:9.64244461"
         id="g9367" />
      <g
         style="stroke-width:9.64244461"
         id="g9369" />
      <g
         style="stroke-width:9.64244461"
         id="g9371" />
      <g
         style="stroke-width:9.64244461"
         id="g9373" />
    </g>
    <path
       id="path9422"
       d="m 4.3008039,292.49565 0.4790412,0.0591 0.1324327,-0.009 c 0,0 0.2333639,0.11154 0.3405464,0.17841 0.1012685,0.0632 0.1766465,0.15312 0.2837858,0.20946 0.1474461,0.0774 0.3217486,0.11348 0.4824377,0.17065 0.1956474,0.0694 0.423016,0.14233 0.5864954,0.17808 0.1634795,0.0354 0.2716866,0.0216 0.3529911,0.0494 0.081314,0.0289 0.172939,0.13023 0.172939,0.13023 0,0 -0.3223787,0.0608 -0.4526252,0.0787 -0.2220208,0.0306 -0.3726899,0.0417 -0.6030435,0.0446 -0.2655095,0.004 -0.794604,0.0467 -0.794604,0.0467 0,0 0.4782146,0.0728 0.7189309,0.10073 0.1947868,0.0226 0.3899463,0.0471 0.5864942,0.0543 0.1323394,0.006 0.397302,-0.009 0.397302,-0.009 l 0.1418921,-0.009 c 0,0 -0.061222,0.1066 -0.1151391,0.14248 -0.097007,0.0647 -0.2254814,0.0949 -0.3483751,0.11348 -0.229482,0.0347 -0.7000064,-0.009 -0.7000064,-0.009 l -0.766226,-0.0697 -0.7473092,-0.12409 -0.157109,-0.067 -0.1266818,-0.55352 0.063925,-0.51862 z"
       style="display:inline;fill:none;fill-rule:evenodd;stroke:#000000;stroke-width:0.08285858;stroke-linecap:butt;stroke-linejoin:miter;stroke-miterlimit:3.70000005;stroke-dasharray:none;stroke-opacity:1" />
    <text
       transform="scale(1.1195186,0.89324107)"
       id="text14034"
       y="326.05453"
       x="-0.51655281"
       style="font-style:normal;font-variant:normal;font-weight:normal;font-stretch:normal;font-size:9.18558598px;line-height:1.25;font-family:Calibri;-inkscape-font-specification:'Calibri, Normal';font-variant-ligatures:normal;font-variant-caps:normal;font-variant-numeric:normal;font-feature-settings:normal;text-align:start;letter-spacing:0px;word-spacing:0px;writing-mode:lr-tb;text-anchor:start;opacity:0.85799997;vector-effect:none;fill:#000000;fill-opacity:1;stroke:#0088aa;stroke-width:1.08489478;stroke-linecap:butt;stroke-linejoin:miter;stroke-miterlimit:4;stroke-dasharray:none;stroke-dashoffset:0;stroke-opacity:1;paint-order:markers stroke fill"
       xml:space="preserve"><tspan
         y="326.05453"
         x="-0.51655281"
         id="tspan4777">1</tspan></text>
  </g>
</svg>
